<svg xmlns="http://www.w3.org/2000/svg" viewBox="0 0 81.81 106.6"><defs><style>.cls-1{fill:#b5a4a0;}.cls-2{fill:#85929d;}.cls-3{fill:#cdc5c1;}</style></defs><title>Asset 2</title><g id="Layer_2" data-name="Layer 2"><g id="Layer_1-2" data-name="Layer 1"><path class="cls-1" d="M72.28,37.08a.6.6,0,0,0-.61.6.61.61,0,0,0,1.21,0,.6.6,0,0,0-.6-.6"/><path class="cls-1" d="M76.6,37.08a.6.6,0,0,0-.6.6.61.61,0,0,0,1.21,0,.6.6,0,0,0-.61-.6"/><path class="cls-1" d="M81.38,46.4a2,2,0,0,0-1.76-1h0a5.24,5.24,0,0,0,0-.56c0-.23,0-.46,0-.7a2,2,0,0,0-.31-3.92H79a4.68,4.68,0,0,0,.33-1.74,4.73,4.73,0,0,0-.15-1.19,2.19,2.19,0,0,0-.91-4.18,2.21,2.21,0,0,0-1.82,1,4.9,4.9,0,0,0-4.06,0,2.21,2.21,0,0,0-4,1.23,2.18,2.18,0,0,0,1.3,2,4.73,4.73,0,0,0-.15,1.19,4.68,4.68,0,0,0,.33,1.74h-.27a2,2,0,0,0-.31,3.92c0,.24,0,.47,0,.7a5.24,5.24,0,0,0,0,.56h0a2,2,0,0,0-1.76,1,4.35,4.35,0,0,0-.22,3.05,2.47,2.47,0,0,0,2.38,1.81h.14v0h0a2.47,2.47,0,0,0,2.08-1.38,4.68,4.68,0,0,0,5.08,0,2.47,2.47,0,0,0,2.08,1.38h.16a2.48,2.48,0,0,0,2.38-1.81,4.35,4.35,0,0,0-.22-3.05m-4.61,2.7a4,4,0,0,1-4.66,0,2.66,2.66,0,0,0-.07-.93,4.18,4.18,0,0,0-2-2.66,5.69,5.69,0,0,1,0-.72,6.61,6.61,0,0,1,.08-1,.4.4,0,0,0-.08-.32.38.38,0,0,0-.31-.13h-.09a1.21,1.21,0,1,1,0-2.42,1.25,1.25,0,0,1,.87.34,4.87,4.87,0,0,0,1.34,1.26,3.36,3.36,0,0,0-.48,1.73,3.12,3.12,0,1,0,6.24,0,3.27,3.27,0,0,0-.48-1.73,5.15,5.15,0,0,0,1.34-1.25,1.22,1.22,0,0,1,.87-.35,1.21,1.21,0,1,1,0,2.42H79.2a.37.37,0,0,0-.39.45,6.61,6.61,0,0,1,.08,1,5.69,5.69,0,0,1,0,.72,4.18,4.18,0,0,0-2,2.66,2.66,2.66,0,0,0-.07.93m-7,1.39h-.11A1.72,1.72,0,0,1,68,49.24a3.65,3.65,0,0,1,.15-2.46,1.2,1.2,0,0,1,.79-.62,1.11,1.11,0,0,1,.66,0h0a3.24,3.24,0,0,1,1.71,2.21,1.63,1.63,0,0,1-.15,1.24,1.73,1.73,0,0,1-1.06.81,2,2,0,0,1-.34.06M74,38.67a1.64,1.64,0,0,1,.88,0s0,0,0,.06a.48.48,0,1,1-1,0s0,0,0-.06m.44,4.62a4.93,4.93,0,0,0,2-.41,2.48,2.48,0,0,1,.41,1.38,2.44,2.44,0,0,1-2,2.42H74.1a2.44,2.44,0,0,1-2-2.42,2.48,2.48,0,0,1,.41-1.38,4.9,4.9,0,0,0,2,.41m4.21-6.65a.36.36,0,0,0-.24.18.42.42,0,0,0,0,.31,4.07,4.07,0,0,1-3.58,5.38V39.93a1.36,1.36,0,0,0,.85-1.2c0-.27-.12-.89-1.22-.89s-1.22.62-1.22.89a1.36,1.36,0,0,0,.85,1.2v2.58a4.07,4.07,0,0,1-3.58-5.38.42.42,0,0,0,0-.31.36.36,0,0,0-.24-.18,1.43,1.43,0,1,1,1.69-2,.47.47,0,0,0,.22.2.37.37,0,0,0,.29,0,4.29,4.29,0,0,1,4,0,.37.37,0,0,0,.29,0,.47.47,0,0,0,.22-.2,1.45,1.45,0,1,1,1.69,2M77.56,48.38a3.24,3.24,0,0,1,1.71-2.21h0a1.11,1.11,0,0,1,.66,0,1.2,1.2,0,0,1,.79.62,3.65,3.65,0,0,1,.15,2.46,1.72,1.72,0,0,1-1.67,1.25h-.11a2,2,0,0,1-.34-.06,1.73,1.73,0,0,1-1.06-.81,1.63,1.63,0,0,1-.15-1.24"/><path class="cls-2" d="M41.11,34.68a6.65,6.65,0,1,0,6.65,6.65,6.66,6.66,0,0,0-6.65-6.65m0,12.24a5.59,5.59,0,1,1,5.59-5.59,5.6,5.6,0,0,1-5.59,5.59"/><path class="cls-2" d="M41.11,37.18a4.15,4.15,0,1,0,4.15,4.15,4.15,4.15,0,0,0-4.15-4.15m0,7.29a3.15,3.15,0,1,1,3.15-3.14,3.15,3.15,0,0,1-3.15,3.14"/><path class="cls-2" d="M52.38,32.75H45.57l-.7-1.89a1.42,1.42,0,0,0-1.33-.94H38.69a1.44,1.44,0,0,0-1.34.94l-.69,1.89H34.34V32a1.09,1.09,0,0,0-1.09-1.09h-1.6A1.09,1.09,0,0,0,30.56,32v.74h-.72a1.67,1.67,0,0,0-1.67,1.67V48.23a1.67,1.67,0,0,0,1.67,1.67H52.38a1.67,1.67,0,0,0,1.67-1.67V34.42a1.67,1.67,0,0,0-1.67-1.67m-14-1.51a.3.3,0,0,1,.29-.2h4.85a.3.3,0,0,1,.28.2l.56,1.51H37.84ZM31.62,32a0,0,0,0,1,0,0h1.6a0,0,0,0,1,0,0v.74H31.62Zm-2.34,5h1.65v8.72H29.28ZM52.94,48.23a.56.56,0,0,1-.56.56H29.84a.56.56,0,0,1-.56-.56V46.8h2.21a.56.56,0,0,0,.56-.56V36.41a.56.56,0,0,0-.56-.56H29.28V34.42a.56.56,0,0,1,.56-.55H52.38a.56.56,0,0,1,.56.55v1.43H50.73a.56.56,0,0,0-.56.56v9.83a.56.56,0,0,0,.56.56h2.21Zm0-2.54H51.29V37h1.65Z"/><rect class="cls-3" x="48.74" y="13.29" width="38.16" height="1.4" transform="translate(9.97 52.05) rotate(-45)"/><rect class="cls-3" x="-4.68" y="66.7" width="38.16" height="1.4" transform="translate(-43.45 29.93) rotate(-45)"/><rect class="cls-3" x="67.12" y="48.33" width="1.4" height="38.16" transform="translate(-27.8 67.7) rotate(-45)"/><rect class="cls-3" x="13.7" y="-5.09" width="1.4" height="38.16" transform="translate(-5.67 14.27) rotate(-44.97)"/><path class="cls-1" d="M47.1,72.05a3.27,3.27,0,0,0-3.24-3.3,3.21,3.21,0,0,0-2.75,1.58,3.21,3.21,0,0,0-2.75-1.58,3.27,3.27,0,0,0-3.24,3.3,3.37,3.37,0,0,0,1.11,2.49l4.59,4.68a.38.38,0,0,0,.29.12.42.42,0,0,0,.3-.12L46,74.54a3.34,3.34,0,0,0,1.11-2.49"/><path class="cls-2" d="M8.55,103.49a1.14,1.14,0,0,1,.35.91,1.06,1.06,0,0,1-.36.89,1.74,1.74,0,0,1-1.1.29H6.85v1H6.28V103.2H7.43a1.77,1.77,0,0,1,1.12.29m-.4,1.39a.75.75,0,0,0,.17-.53.54.54,0,0,0-.22-.49,1.21,1.21,0,0,0-.68-.14H6.85v1.34h.66a.89.89,0,0,0,.64-.18"/><polygon class="cls-2" points="12.29 103.2 12.29 104.66 10.62 104.66 10.62 103.2 10.05 103.2 10.05 106.56 10.62 106.56 10.62 105.19 12.29 105.19 12.29 106.56 12.86 106.56 12.86 103.2 12.29 103.2"/><path class="cls-2" d="M17.09,106.1a1.74,1.74,0,0,1-1.26.5,1.78,1.78,0,0,1-1.27-.5,1.79,1.79,0,0,1,0-2.48,1.74,1.74,0,0,1,1.27-.5,1.7,1.7,0,0,1,1.26.5,1.76,1.76,0,0,1,0,2.48M16.67,104A1.2,1.2,0,0,0,15,104a1.21,1.21,0,0,0-.34.87,1.18,1.18,0,0,0,.34.86,1.17,1.17,0,0,0,1.69,0,1.18,1.18,0,0,0,.34-.86,1.21,1.21,0,0,0-.34-.87"/><polygon class="cls-2" points="18.39 103.2 18.39 103.72 19.41 103.72 19.41 106.56 19.97 106.56 19.97 103.72 20.99 103.72 20.99 103.2 18.39 103.2"/><path class="cls-2" d="M24.82,106.1a1.78,1.78,0,0,1-1.27.5,1.74,1.74,0,0,1-1.26-.5,1.76,1.76,0,0,1,0-2.48,1.7,1.7,0,0,1,1.26-.5,1.74,1.74,0,0,1,1.27.5,1.79,1.79,0,0,1,0,2.48M24.4,104a1.2,1.2,0,0,0-1.69,0,1.21,1.21,0,0,0-.34.87,1.18,1.18,0,0,0,.34.86,1.17,1.17,0,0,0,1.69,0,1.18,1.18,0,0,0,.34-.86,1.21,1.21,0,0,0-.34-.87"/><path class="cls-2" d="M28.85,104.93h.57v1.15a1.74,1.74,0,0,1-1.36.52,1.71,1.71,0,0,1-1.25-.49,1.75,1.75,0,0,1,1.25-3,1.78,1.78,0,0,1,1.21.42L29,104a1.33,1.33,0,0,0-.39-.23,1.68,1.68,0,0,0-.47-.06,1.18,1.18,0,0,0-.85.33,1.19,1.19,0,0,0,.8,2,1.42,1.42,0,0,0,.8-.21Z"/><path class="cls-2" d="M33.33,104.29a1,1,0,0,1-.72,1l.88,1.22h-.72L32,105.43h-.74v1.13h-.57V103.2H31.9a1.83,1.83,0,0,1,1.1.26,1,1,0,0,1,.33.83m-.75.48a.62.62,0,0,0,.17-.48.5.5,0,0,0-.18-.45,1.2,1.2,0,0,0-.63-.12h-.72v1.2h.7a1.07,1.07,0,0,0,.66-.15"/><path class="cls-2" d="M35.65,103.2l-1.48,3.36h.6l.34-.76h1.68l.34.76h.61l-1.48-3.36Zm.3.69.61,1.38H35.34Z"/><path class="cls-2" d="M41,103.49a1.14,1.14,0,0,1,.35.91,1.06,1.06,0,0,1-.36.89,1.76,1.76,0,0,1-1.1.29h-.6v1h-.56V103.2h1.15a1.79,1.79,0,0,1,1.12.29m-.41,1.39a.71.71,0,0,0,.18-.53.56.56,0,0,0-.22-.49,1.23,1.23,0,0,0-.68-.14h-.58v1.34h.66a.86.86,0,0,0,.64-.18"/><polygon class="cls-2" points="44.7 103.2 44.7 104.66 43.03 104.66 43.03 103.2 42.46 103.2 42.46 106.56 43.03 106.56 43.03 105.19 44.7 105.19 44.7 106.56 45.26 106.56 45.26 103.2 44.7 103.2"/><polygon class="cls-2" points="48.63 103.2 47.71 104.73 46.79 103.2 46.17 103.2 47.42 105.24 47.42 106.56 48 106.56 48 105.24 49.25 103.2 48.63 103.2"/><path class="cls-2" d="M53.5,106.05a1.12,1.12,0,0,0,.5-.1,2.15,2.15,0,0,0,.45-.31l.36.37a1.69,1.69,0,0,1-1.3.59,1.72,1.72,0,0,1-1.26-.49,1.64,1.64,0,0,1-.5-1.24,1.67,1.67,0,0,1,.51-1.25,1.74,1.74,0,0,1,1.29-.5,1.69,1.69,0,0,1,1.31.58l-.36.39a1.54,1.54,0,0,0-.46-.32,1.28,1.28,0,0,0-.5-.09,1.18,1.18,0,0,0-.85.33,1.08,1.08,0,0,0-.35.84,1.18,1.18,0,0,0,1.16,1.2"/><path class="cls-2" d="M57,103.2l-1.48,3.36h.6l.34-.76h1.69l.33.76h.61l-1.48-3.36Zm.3.69.62,1.38H56.69Z"/><polygon class="cls-2" points="62.56 103.2 62.56 105.71 60.61 103.2 60.04 103.2 60.04 106.56 60.61 106.56 60.61 104.11 62.51 106.56 63.13 106.56 63.13 103.2 62.56 103.2"/><path class="cls-2" d="M65.56,103.2l-1.48,3.36h.6l.34-.76H66.7l.34.76h.61l-1.49-3.36Zm.3.69.61,1.38H65.25Z"/><path class="cls-2" d="M73.86,103.2l-1.49,3.36H73l.34-.76H75l.34.76h.6l-1.48-3.36Zm.3.69.61,1.38H73.55Z"/><path class="cls-1" d="M47.51,9.74c0-.27-1-.19-1.11-.39s1.14-1.79,1-2.15-1.81.45-1.91.28.11-1.37-.07-1.52-1.87,1.92-2.11,1.68.55-4.11.39-4.19S42.44,4,42.31,4s-1-2.4-1.2-2.4S40,3.92,39.91,4s-1.19-.58-1.35-.51.62,3.94.39,4.19S37,5.81,36.84,6s0,1.34-.07,1.52S35,6.84,34.86,7.2s1,2,1,2.15-1.11.12-1.11.39,3,2,3.2,2.26-1,1.09-.86,1.26,1.37-.32,3.7-.37v2.36a.36.36,0,1,0,.72,0V12.89c2.34,0,3.5.57,3.7.37s-1.06-1-.86-1.26,3.2-2,3.2-2.26"/><path class="cls-1" d="M17,35a2.42,2.42,0,0,0-1.39-1.27,2.46,2.46,0,0,0-3.16,1.47,2.41,2.41,0,0,0,.14,2l.06.12h-.14A4.13,4.13,0,0,0,8.81,40.4l0,.13H8.5l0-.07a4.13,4.13,0,0,0-3.76-3.17H4.59l.06-.12a2.46,2.46,0,0,0-1.14-3.39,2.54,2.54,0,0,0-1-.23,2.5,2.5,0,0,0-.85.15A2.47,2.47,0,0,0,.15,36.85a2.5,2.5,0,0,0,1.4,1.45l.12.05-.1.09a4.15,4.15,0,0,0-.85,4.79L3.4,48.84a.44.44,0,0,0,.38.24h9.71a.44.44,0,0,0,.38-.24l2.69-5.61a4.17,4.17,0,0,0-.86-4.79l-.1-.09.13-.05A2.46,2.46,0,0,0,17,35m-8.4,6.42a1.11,1.11,0,1,1-1.11,1.11,1.11,1.11,0,0,1,1.11-1.11M.94,36.56a1.62,1.62,0,1,1,2.08,1,1.52,1.52,0,0,1-.55.1A1.61,1.61,0,0,1,.94,36.56M4.05,48.23,1.48,42.86a3.33,3.33,0,0,1-.08-2.68A3.28,3.28,0,0,1,6,38.52a3.23,3.23,0,0,1,1.65,2.07l.05.18-.06,0a2,2,0,0,0-.92,1.34l0,.14-1.31-1a1.44,1.44,0,0,0-2,.29,1.46,1.46,0,0,0-.28,1.07,1.41,1.41,0,0,0,.56,1l2.81,2.12.62,2.47Zm6-2.82-.71,2.82H8l-.71-2.82a.4.4,0,0,0-.16-.24L4.15,43a.63.63,0,0,1-.23-.4A.61.61,0,0,1,4,42.13.6.6,0,0,1,4.87,42L7,43.61a1.94,1.94,0,0,0,1.6.83,2,2,0,0,0,1.6-.83l0,0L12.4,42a.59.59,0,0,1,.84.12.57.57,0,0,1,.12.44.64.64,0,0,1-.24.4l-2.93,2.2a.43.43,0,0,0-.15.24m5.83-5.23a3.28,3.28,0,0,1-.08,2.69l-2.56,5.36h-3l.62-2.47,2.81-2.12a1.45,1.45,0,0,0,.29-2,1.44,1.44,0,0,0-2-.29l-1.31,1,0-.14a2,2,0,0,0-.93-1.34l-.05,0,0-.17A3.31,3.31,0,0,1,14,38.33a3.23,3.23,0,0,1,1.91,1.85m.46-3.62a1.62,1.62,0,0,1-1.53,1.07,1.52,1.52,0,0,1-.55-.1,1.62,1.62,0,0,1,1.11-3.05,1.65,1.65,0,0,1,.92.84,1.62,1.62,0,0,1,0,1.24"/><path class="cls-2" d="M75.94,98.08a.38.38,0,0,0-.39-.4.39.39,0,0,0-.4.4v.58H71.71V95.49h2.83a.4.4,0,0,0,0-.8H71.71v-3.1H75v.57a.39.39,0,0,0,.4.4.38.38,0,0,0,.39-.4v-1a.38.38,0,0,0-.39-.4h-5a.39.39,0,0,0-.4.4.39.39,0,0,0,.4.4h.47v7.07h-.47a.39.39,0,0,0-.4.4.39.39,0,0,0,.4.4h5.18a.38.38,0,0,0,.39-.35Z"/><path class="cls-2" d="M19.43,95.86l1.16-3.07,1.16,3.07Zm5,2.56h-.26L21.28,91a.66.66,0,0,0-.61-.45H19.2a.63.63,0,0,0-.64.64.62.62,0,0,0,.64.63h.38L17,98.42h-.25a.64.64,0,0,0,0,1.28h1.83a.64.64,0,0,0,0-1.28h-.12L19,97.13H22.2l.48,1.29h-.11a.64.64,0,1,0,0,1.28H24.4a.64.64,0,1,0,0-1.28"/><path class="cls-2" d="M75.55,99.22H70.37a.15.15,0,0,1-.16-.16.15.15,0,0,1,.16-.16h.71V91.35h-.71a.15.15,0,0,1-.16-.16.15.15,0,0,1,.16-.16h5a.15.15,0,0,1,.16.16v1a.14.14,0,0,1-.16.15.15.15,0,0,1-.15-.15v-.82H71.47v3.58h3.07a.16.16,0,0,1,0,.32H71.47V98.9h3.92v-.82a.15.15,0,0,1,.16-.16.14.14,0,0,1,.15.16v1a.16.16,0,0,1-.16.14m0-1.78a.63.63,0,0,0-.64.64v.34H72V95.73h2.59a.64.64,0,1,0,0-1.28H72V91.82h2.82v.35a.63.63,0,0,0,.63.63.62.62,0,0,0,.64-.63v-1a.62.62,0,0,0-.64-.64h-5a.64.64,0,0,0-.64.64.62.62,0,0,0,.64.63h.23v6.6h-.23a.64.64,0,0,0,0,1.28h5.18a.64.64,0,0,0,.63-.59v-1a.62.62,0,0,0-.63-.64"/><path class="cls-2" d="M12.87,97.38a.65.65,0,0,0-.54.27,2.45,2.45,0,0,1-2,.95c-2,0-2.87-1.07-2.87-3.47s1-3.49,2.87-3.49a2.58,2.58,0,0,1,2.05,1,.63.63,0,0,0,.53.26.64.64,0,0,0,.65-.65.7.7,0,0,0-.14-.41,3.79,3.79,0,0,0-3.09-1.46C7.55,90.37,6,92.06,6,95.13s1.47,4.75,4.25,4.75A3.79,3.79,0,0,0,13.4,98.4a.62.62,0,0,0,.12-.37.64.64,0,0,0-.65-.65"/><path class="cls-2" d="M61.45,94.67V91.82h1.87a1.43,1.43,0,0,1,0,2.85Zm4.6,3.75h-.47L63.9,95.9A2.61,2.61,0,0,0,66,93.25a2.64,2.64,0,0,0-2.7-2.7H59.86a.63.63,0,0,0-.64.64.62.62,0,0,0,.64.63h.23v6.6h-.23a.64.64,0,1,0,0,1.28h1.82a.64.64,0,1,0,0-1.28h-.23V96h.93l2.24,3.43a.66.66,0,0,0,.59.32h.84a.64.64,0,1,0,0-1.28"/><path class="cls-2" d="M55.26,90.55H53.37a.63.63,0,0,0-.64.64.62.62,0,0,0,.64.63h.3v5c0,.82-.21,1.76-1.89,1.76s-1.92-.94-1.92-1.76v-5h.31a.62.62,0,0,0,.63-.63.63.63,0,0,0-.63-.64h-1.9a.63.63,0,0,0-.63.64.62.62,0,0,0,.63.63h.24v5c0,2,1.13,3.06,3.27,3.06S55,98.82,55,96.82v-5h.24a.62.62,0,0,0,.64-.63.63.63,0,0,0-.64-.64"/><path class="cls-2" d="M43.89,90.55h-5.5a.63.63,0,0,0-.64.64v1.58a.64.64,0,0,0,1.28,0v-1h1.44v6.61h-.32a.64.64,0,1,0,0,1.28h2a.64.64,0,1,0,0-1.28h-.29V91.81h1.43v1a.63.63,0,0,0,.64.64.62.62,0,0,0,.63-.64V91.19a.62.62,0,0,0-.63-.64"/><path class="cls-2" d="M31.86,94.79H30.11v-3h1.75a1.49,1.49,0,0,1,0,3M32,90.55H28.52a.63.63,0,0,0-.64.64.62.62,0,0,0,.64.63h.23v6.6h-.23a.64.64,0,1,0,0,1.28h1.93a.64.64,0,1,0,0-1.28h-.34V96.06H32a2.76,2.76,0,0,0,0-5.51"/><path class="cls-2" d="M71.24,103.64a1.55,1.55,0,0,1,.48,1.21,1.67,1.67,0,0,1-.47,1.24,2,2,0,0,1-1.43.45H68.71V103.2h1.14a2,2,0,0,1,1.39.44m-.09,1.23c0-.77-.44-1.15-1.31-1.15h-.57V106h.63a1.38,1.38,0,0,0,.93-.29,1.1,1.1,0,0,0,.32-.85"/></g></g></svg>